<svg xmlns="http://www.w3.org/2000/svg" xmlns:xlink="http://www.w3.org/1999/xlink" width="24" height="24" preserveAspectRatio="xMidYMid meet" viewBox="0 0 24 24" style="-ms-transform: rotate(360deg); -webkit-transform: rotate(360deg); transform: rotate(360deg);"><g fill="#64b3e8"><path d="M10 5c-3.464 0-6 2.378-6 5c0 .88.273 1.711.765 2.44a1 1 0 0 1 .126.858l-.455 1.459l2.295-.368a1 1 0 0 1 .55.067A6.938 6.938 0 0 0 10 15c3.464 0 6-2.378 6-5s-2.536-5-6-5zm-8 5c0-4.005 3.732-7 8-7s8 2.995 8 7s-3.732 7-8 7a8.973 8.973 0 0 1-3.228-.592l-3.614.58a1 1 0 0 1-1.113-1.286l.8-2.563A6.285 6.285 0 0 1 2 10z"/><path d="M16.074 8.2a1 1 0 0 0 .549 1.304C18.693 10.347 20 12.095 20 14c0 .88-.273 1.711-.765 2.44a1 1 0 0 0-.126.858l.455 1.459l-2.295-.368a1 1 0 0 0-.55.067A6.939 6.939 0 0 1 14 19c-2.704 0-4.893-1.479-5.677-3.381a1 1 0 0 0-1.85.762C7.612 19.14 10.61 21 14 21a8.97 8.97 0 0 0 3.228-.592l3.614.58a1 1 0 0 0 1.113-1.286l-.8-2.563A6.285 6.285 0 0 0 22 14c0-2.882-1.963-5.266-4.623-6.349a1 1 0 0 0-1.303.55z"/></g><rect x="0" y="0" width="24" height="24" fill="rgba(0, 0, 0, 0)" /></svg>